<svg width="63" height="43" viewBox="0 0 63 43" fill="none" xmlns="http://www.w3.org/2000/svg">
<path d="M61.6874 7.08089C61.3307 5.80837 60.6358 4.6563 59.6767 3.74714C58.6904 2.81003 57.4816 2.13969 56.1644 1.79939C51.2347 0.500016 31.4842 0.500017 31.4842 0.500017C23.2504 0.406337 15.0187 0.818362 6.83541 1.73377C5.51816 2.0992 4.31164 2.78452 3.32316 3.72877C2.35191 4.66327 1.64841 5.81564 1.28091 7.07827C0.398105 11.8341 -0.0308223 16.663 -8.88783e-05 21.5C-0.0315889 26.3326 0.396286 31.16 1.28091 35.9218C1.64054 37.1791 2.34141 38.3263 3.31529 39.2529C4.28916 40.1795 5.50191 40.8489 6.83541 41.2033C11.8308 42.5 31.4842 42.5 31.4842 42.5C39.7284 42.5938 47.9706 42.1818 56.1644 41.2663C57.4816 40.926 58.6904 40.2556 59.6767 39.3185C60.6479 38.3919 61.3383 37.2395 61.6848 35.9848C62.5906 31.2308 63.0311 26.3998 62.9999 21.5604C63.0681 16.7005 62.6282 11.8467 61.6874 7.07827V7.08089ZM25.2052 30.488V12.5146L41.6377 21.5026L25.2052 30.488Z" fill="#241400"/>
</svg>
